<svg width="367" height="367" viewBox="0 0 367 367" fill="none" xmlns="http://www.w3.org/2000/svg">
<path d="M0 0.435852H366.319V366.755H0V0.435852Z" fill="#000001"/>
<path d="M33.8341 298.068H171.207V320.955H33.8341V298.068Z" fill="white"/>
<path d="M33.9868 46.0316H69.6284C98.3707 46.0316 118.228 65.7617 118.228 91.5V91.7546C118.228 117.493 98.3707 137.579 69.6284 137.579H33.9868V46.0316ZM54.0988 64.1833V119.351H69.6538C86.1253 119.351 97.2251 108.252 97.2251 92.0346V91.78C97.2251 75.5886 86.1253 64.2088 69.6538 64.2088H54.0988V64.1833ZM121.818 92.0346V91.78C121.769 85.4986 122.981 79.2711 125.382 73.4666C127.783 67.662 131.325 62.3984 135.798 57.9876C140.27 53.5767 145.583 50.1084 151.42 47.7879C157.257 45.4675 163.501 44.3422 169.781 44.4786C186.253 44.4786 196.181 48.9338 205.703 57.0295L192.974 72.3045C185.998 66.4236 179.71 63.0886 169.119 63.0886C154.481 63.0886 142.846 76.0214 142.846 91.5764V91.831C142.846 108.557 154.353 120.828 170.545 120.828C177.279 121.028 183.906 119.104 189.486 115.329V102.218H169.119V84.8554H208.834V124.57C197.99 133.972 184.108 139.127 169.756 139.081C141.421 139.081 121.818 119.097 121.818 92.0346Z" fill="white"/>
</svg>
