<svg xmlns="http://www.w3.org/2000/svg" height="48" viewBox="0 -960 960 960" width="48"><path d="M871.739-308.391v-255.022L517.152-371.478Q498.923-362 478.864-362.5q-20.06-.5-36.777-9.978L76.174-573.456q-9.24-5-14.717-13.983-5.479-8.984-5.479-18.938 0-9.899 5.549-18.741 5.548-8.842 14.647-15.165l365.913-199.739q8.735-5 18.311-7.858 9.576-2.859 18.796-2.859 9.22 0 18.796 2.859 9.576 2.858 19.162 7.858l409.065 222.174q9.193 5 14.694 14.179 5.502 9.178 5.502 19.806v275.711q0 16.132-10.962 26.925-10.963 10.792-26.247 10.792-15.523 0-26.494-10.912t-10.971-27.044ZM442.087-120.739 216.304-244.913q-19.241-10.713-29.816-28.541-10.575-17.829-10.575-39.285v-166.587l266.174 145.609Q458.525-323 478.757-323q20.232 0 38.395-10.717l265.174-145.609v166.587q0 21.456-10.695 39.285-10.694 17.828-28.696 28.541L517.152-120.739q-9.586 5.239-19.162 7.478-9.576 2.239-18.796 2.239-9.22 0-18.796-2.239-9.576-2.239-18.311-7.478Z"/></svg>