<svg width="1000" height="1000" viewBox="0 0 1000 1000" fill="none" xmlns="http://www.w3.org/2000/svg">
<rect width="1000" height="1000" fill="black"/>
<path d="M317.726 687.925C288.488 687.925 263.393 680.527 242.442 665.73C221.608 650.815 205.569 629.331 194.324 601.277C183.197 573.105 177.634 539.191 177.634 499.537C177.752 459.883 183.375 426.147 194.501 398.33C205.747 370.394 221.786 349.087 242.619 334.409C263.571 319.731 288.607 312.392 317.726 312.392C346.845 312.392 371.881 319.731 392.832 334.409C413.784 349.087 429.823 370.394 440.95 398.33C452.196 426.265 457.818 460.001 457.818 499.537C457.818 539.31 452.196 573.282 440.95 601.455C429.823 629.509 413.784 650.934 392.832 665.73C371.999 680.527 346.964 687.925 317.726 687.925ZM317.726 632.349C340.453 632.349 358.386 621.163 371.526 598.791C384.783 576.301 391.412 543.216 391.412 499.537C391.412 470.654 388.393 446.388 382.357 426.739C376.32 407.089 367.797 392.293 356.788 382.349C345.78 372.288 332.759 367.257 317.726 367.257C295.117 367.257 277.243 378.502 264.104 400.993C250.964 423.365 244.336 456.213 244.217 499.537C244.099 528.538 246.999 552.922 252.918 572.69C258.955 592.458 267.477 607.373 278.486 617.435C289.494 627.378 302.574 632.349 317.726 632.349ZM664.716 317.364V681H598.843V381.462H596.712L511.662 435.794V375.425L602.039 317.364H664.716ZM777.332 684.906C766.56 684.906 757.327 681.118 749.633 673.543C741.939 665.967 738.151 656.734 738.269 645.844C738.151 635.19 741.939 626.076 749.633 618.5C757.327 610.924 766.56 607.136 777.332 607.136C787.748 607.136 796.804 610.924 804.498 618.5C812.31 626.076 816.276 635.19 816.394 645.844C816.276 653.064 814.382 659.634 810.712 665.553C807.161 671.471 802.426 676.206 796.508 679.757C790.708 683.19 784.316 684.906 777.332 684.906Z" fill="white"/>
</svg>
